<svg xmlns="http://www.w3.org/2000/svg" viewBox="0 0 1000 1000">
  <rect width="1000" height="1000" fill="#1d1d1d"/>
  <path transform="translate(500 500) scale(0.78) translate(-209.5 -550.9)" fill="#ffffff" d="M207 182.9L198 183.9L161 183.9L159 190.9L153 220.9L149 226.9L95 361.9L100 372.9L82 385.9L28 516.9L20 521.9L22 584.9L46 635.9L82 720.9L112 782.9L123 782.9L120 799.9L155 886.9L156 919.9L247 920.9L249 909.9L261 877.9L315 749.9L338 701.9L339 685.9L347 675.9L396 576.9L399 521.9L365 447.9L338 387.9L328 387.9L323 360.9L272 235.9L252 180.9ZM209 792.9L165 677.9L145 636.9L125 622.9L135 610.9L126 581.9L113 548.9L112 536.9L145 450.9L138 434.9L152 430.9L207 285.9L213 304.9L236 365.9L254 376.9L245 388.9L284 489.9L296 523.9L304 548.9L255 668.9L256 686.9L257 686.9L245 698.9L213 803.9Z"/>
</svg>
